<?xml version="1.0" encoding="UTF-8" standalone="no"?>
<svg
   xmlns:dc="http://purl.org/dc/elements/1.1/"
   xmlns:cc="http://creativecommons.org/ns#"
   xmlns:rdf="http://www.w3.org/1999/02/22-rdf-syntax-ns#"
   xmlns:svg="http://www.w3.org/2000/svg"
   xmlns="http://www.w3.org/2000/svg"
   id="svg915"
   preserveAspectRatio="xMidYMid meet"
   viewBox="0 0 688.27148 268.20404"
   height="268.20404pt"
   width="688.27148pt"
   version="1.0">
  <defs
     id="defs919" />
  <metadata
     id="metadata887">
Created by potrace 1.15, written by Peter Selinger 2001-2017
<rdf:RDF>
  <cc:Work
     rdf:about="">
    <dc:format>image/svg+xml</dc:format>
    <dc:type
       rdf:resource="http://purl.org/dc/dcmitype/StillImage" />
    <dc:title></dc:title>
  </cc:Work>
</rdf:RDF>
</metadata>
  <g
     style="fill:#000000;stroke:none"
     id="g913"
     transform="matrix(0.1,0,0,-0.1,-256.37639,878.20405)">
    <path
       id="path889"
       d="m 5635,8130 c -121,-363 -222,-660 -225,-660 -3,0 -72,199 -154,443 -82,243 -152,445 -155,449 -5,6 -155,-428 -468,-1359 l -95,-283 h -352 -351 l -230,230 c -217,217 -232,230 -267,230 -44,0 -78,-36 -78,-83 0,-25 26,-56 172,-203 l 172,-174 h -54 -54 l -231,230 c -227,225 -233,230 -273,230 -32,0 -45,-6 -61,-26 -41,-53 -34,-64 156,-256 l 177,-178 h -59 -59 l -231,230 c -202,202 -235,230 -262,230 -17,0 -39,-3 -48,-6 -23,-9 -47,-61 -40,-87 4,-12 102,-118 218,-234 l 212,-213 -212,-212 c -116,-117 -214,-223 -218,-235 -7,-26 17,-78 40,-87 9,-3 31,-6 48,-6 27,0 60,28 262,230 l 231,230 h 59 59 l -177,-178 c -193,-194 -201,-209 -152,-257 17,-18 35,-25 62,-25 35,0 49,12 268,230 l 231,230 h 54 54 l -172,-174 c -146,-147 -172,-178 -172,-203 0,-47 34,-83 78,-83 35,0 50,13 267,230 l 230,230 h 637 c 351,0 638,-1 638,-3 0,-1 -29,-90 -65,-197 -36,-107 -65,-196 -65,-197 0,-2 394,-3 875,-3 703,0 875,3 875,13 0,7 -29,96 -65,197 -36,102 -65,186 -65,188 0,1 302,2 672,2 h 672 l 211,-210 c 131,-130 219,-210 231,-210 10,0 249,98 529,218 442,190 512,223 523,246 16,33 9,70 -18,93 -26,23 -1007,443 -1033,443 -14,0 -95,-73 -232,-210 l -211,-210 h -374 -375 l -279,825 c -153,454 -281,824 -283,822 -3,-3 -276,-805 -315,-927 -3,-8 -105,289 -228,660 -122,371 -225,678 -229,682 -3,4 -105,-289 -226,-652 z m 415,-392 c 100,-301 180,-554 178,-562 -2,-9 -83,-76 -182,-151 l -179,-135 -46,37 c -70,57 -315,255 -325,264 -4,4 74,255 175,558 101,303 187,547 190,543 4,-4 88,-253 189,-554 z m 773,-418 c -5,-4 -44,-33 -88,-65 -44,-32 -85,-62 -91,-66 -14,-11 -200,127 -198,147 1,8 44,138 95,290 l 93,276 98,-288 c 54,-158 95,-291 91,-294 z m -1624,287 c 50,-148 91,-272 91,-277 0,-5 -43,-40 -96,-78 l -97,-71 -86,64 c -47,34 -90,70 -95,78 -7,10 18,96 85,291 51,151 97,272 100,268 4,-4 48,-128 98,-275 z m -192,-550 92,-69 100,77 c 56,41 101,72 101,68 0,-4 -30,-97 -66,-205 l -66,-198 h -233 -234 l 64,188 c 35,103 69,202 75,219 l 12,33 31,-22 c 18,-12 73,-53 124,-91 z m 1952,-110 c 39,-115 71,-211 71,-213 0,-2 -100,-4 -222,-4 h -223 l -67,195 c -36,107 -61,192 -55,188 7,-3 44,-29 82,-58 39,-28 75,-54 81,-58 6,-4 65,34 130,83 66,49 122,86 125,82 3,-4 38,-101 78,-215 z m -1304,-82 c 108,-88 203,-159 209,-159 7,1 104,70 215,153 112,84 204,151 206,149 6,-6 235,-682 232,-685 -2,-1 -300,-5 -665,-9 l -662,-7 58,174 c 32,96 87,260 122,366 44,134 67,190 76,185 6,-4 100,-79 209,-167 z m 3134,-65 c 199,-85 361,-157 361,-160 0,-3 -165,-76 -367,-162 l -368,-157 -118,117 -117,117 264,5 c 241,5 266,7 285,24 27,25 27,75 0,110 l -20,26 h -267 -267 l 120,120 c 66,66 123,119 127,118 3,-2 169,-73 367,-158 z" />
    <path
       id="path891"
       d="m 1060,4580 v -460 h 300 300 v 65 65 h -225 -225 v 135 135 h 175 175 v 65 65 h -175 -175 v 130 130 h 225 225 v 65 65 h -300 -300 z" />
    <path
       id="path893"
       d="m 3880,4975 v -65 h 70 70 v -330 -330 h -70 -70 v -65 -65 h 225 225 v 65 65 h -80 -80 v 395 395 h -145 -145 z" />
    <path
       id="path895"
       d="m 7580,4910 v -130 h -70 -70 v -65 -65 h 69 69 l 4,-177 c 3,-158 6,-184 26,-228 30,-65 56,-93 117,-121 57,-27 151,-32 217,-12 55,16 123,79 142,131 32,88 34,83 -41,99 l -68,14 -15,-39 c -20,-52 -56,-78 -108,-79 -49,0 -89,22 -102,58 -6,14 -10,99 -10,190 v 164 h 135 135 v 65 65 h -135 -135 v 130 130 h -80 -80 z" />
    <path
       id="path897"
       d="m 3080,4781 c -195,-60 -288,-274 -211,-482 26,-69 88,-133 161,-168 79,-37 210,-42 294,-10 150,56 236,217 206,387 -31,181 -156,283 -343,281 -45,0 -93,-4 -107,-8 z m 175,-138 c 71,-19 124,-102 125,-196 0,-129 -71,-209 -189,-210 -82,0 -136,33 -175,110 -23,46 -21,153 4,202 22,43 71,89 103,96 12,2 31,6 42,8 19,4 49,1 90,-10 z" />
    <path
       id="path899"
       d="m 6825,4773 c -43,-22 -84,-62 -105,-103 l -19,-35 -1,73 v 72 h -75 -75 v -330 -330 h 74 74 l 4,188 c 5,212 15,251 82,310 51,45 133,48 176,6 l 25,-24 3,-240 3,-240 h 81 80 l -4,248 c -4,229 -6,251 -26,297 -28,61 -46,82 -94,106 -47,24 -159,25 -203,2 z" />
    <path
       id="path901"
       d="m 8543,4769 c -75,-29 -144,-95 -179,-171 -25,-54 -29,-75 -29,-153 0,-76 4,-99 27,-146 33,-73 95,-134 167,-167 122,-57 327,-36 416,41 l 40,35 -35,51 c -37,53 -50,60 -69,37 -6,-8 -35,-24 -63,-36 -75,-32 -179,-32 -237,1 -40,22 -91,88 -91,117 0,9 73,12 275,12 213,0 275,3 275,13 0,49 -26,152 -51,204 -36,75 -100,134 -175,163 -74,27 -199,27 -271,-1 z m 240,-142 c 36,-20 77,-71 77,-96 0,-8 -53,-11 -180,-11 -119,0 -180,4 -180,10 0,26 32,70 66,91 68,42 148,44 217,6 z" />
    <path
       id="path903"
       d="m 9463,4769 c -75,-29 -144,-95 -179,-171 -25,-54 -29,-75 -29,-153 0,-76 4,-99 27,-146 33,-73 95,-134 167,-167 122,-57 327,-36 416,41 l 40,35 -35,51 c -37,53 -50,60 -69,37 -6,-8 -35,-24 -63,-36 -75,-32 -179,-32 -237,1 -40,22 -91,88 -91,117 0,9 73,12 275,12 213,0 275,3 275,13 0,49 -26,152 -51,204 -36,75 -100,134 -175,163 -74,27 -199,27 -271,-1 z m 240,-142 c 36,-20 77,-71 77,-96 0,-8 -53,-11 -180,-11 -119,0 -180,4 -180,10 0,26 32,70 66,91 68,42 148,44 217,6 z" />
    <path
       id="path905"
       d="m 10617,4770 c -58,-22 -72,-33 -109,-84 l -28,-39 v 66 67 h -150 -150 v -65 -65 h 70 70 v -200 -200 h -70 -70 v -65 -65 h 225 225 v 65 65 h -75 -75 v 108 c 0,123 10,169 47,212 59,70 151,89 282,58 8,-2 25,24 42,66 16,38 28,70 27,71 -40,29 -192,32 -261,5 z" />
    <path
       id="path907"
       d="m 1940,4773 c 0,-4 53,-152 118,-328 l 117,-320 91,-3 92,-3 10,28 c 5,15 45,123 87,238 42,116 92,252 111,303 l 34,92 h -83 -82 l -74,-218 c -41,-119 -79,-228 -84,-242 -8,-21 -21,9 -92,215 l -83,240 -81,3 c -44,2 -81,-1 -81,-5 z" />
    <path
       id="path909"
       d="m 4690,4773 c 0,-4 53,-152 118,-328 l 117,-320 91,-3 92,-3 10,28 c 5,15 45,123 87,238 42,116 92,252 111,303 l 34,92 h -83 -82 l -74,-218 c -41,-119 -79,-228 -84,-242 -8,-21 -21,9 -92,215 l -83,240 -81,3 c -44,2 -81,-1 -81,-5 z" />
    <path
       id="path911"
       d="m 5642,4523 c 4,-281 8,-305 66,-367 38,-40 81,-56 155,-56 84,0 140,29 185,94 l 32,48 v -61 -61 h 80 80 v 330 330 h -79 -79 l -4,-198 c -3,-188 -4,-200 -28,-246 -14,-27 -37,-58 -51,-68 -60,-45 -154,-40 -187,10 -15,22 -17,59 -20,264 l -4,238 h -75 -74 z" />
  </g>
</svg>
